<svg width="21" height="19" viewBox="0 0 21 19" fill="none" xmlns="http://www.w3.org/2000/svg">
<path d="M20.2993 8.79434L12.3412 0.783794C12.331 0.773483 12.3204 0.763478 12.3097 0.753778C11.4407 -0.0264522 10.1276 -0.02924 9.25528 0.747324C9.24443 0.756986 9.23389 0.766953 9.22362 0.777188L1.19299 8.79201C0.894431 9.09003 0.893934 9.57362 1.19192 9.87217C1.48994 10.1707 1.97352 10.1712 2.27204 9.87324L2.87817 9.2683V15.8628C2.87817 17.5474 4.24868 18.9179 5.93326 18.9179H8.68283C9.10466 18.9179 9.4466 18.576 9.4466 18.1542V11.9294H12.1198V18.1542C12.1198 18.576 12.4617 18.9179 12.8836 18.9179H15.5568C17.2413 18.9179 18.6119 17.5474 18.6119 15.8628C18.6119 15.441 18.2699 15.0991 17.8481 15.0991C17.4262 15.0991 17.0843 15.441 17.0843 15.8628C17.0843 16.7051 16.3991 17.3904 15.5568 17.3904H13.6473V11.1657C13.6473 10.7438 13.3054 10.4019 12.8836 10.4019H8.68283C8.261 10.4019 7.91906 10.7438 7.91906 11.1657V17.3904H5.93326C5.09097 17.3904 4.40571 16.7051 4.40571 15.8628V7.76688C4.40571 7.75924 4.4056 7.75164 4.40537 7.74408L10.2847 1.87637C10.5708 1.63337 10.9905 1.63429 11.2756 1.87847L17.0843 7.72552V12.044C17.0843 12.4658 17.4262 12.8078 17.8481 12.8078C18.2699 12.8078 18.6119 12.4658 18.6119 12.044V9.2631L19.2157 9.87095C19.365 10.0212 19.5612 10.0964 19.7575 10.0964C19.9522 10.0964 20.1468 10.0224 20.2958 9.87446C20.5951 9.57717 20.5967 9.09359 20.2993 8.79434Z" fill="#F4F9F4"/>
</svg>
