<svg width="16" height="19" viewBox="0 0 16 19" fill="none" xmlns="http://www.w3.org/2000/svg">
<path d="M2.89429 14.182H12.6987C14.2947 14.182 15.593 12.8837 15.593 11.2877V2.89429C15.593 1.29833 14.2947 0 12.6987 0H2.89429C1.29833 0 0 1.29833 0 2.89429V15.6292C0 17.2251 1.29833 18.5235 2.89429 18.5235H12.6987C14.2947 18.5235 15.593 17.2251 15.593 15.6292C15.593 15.2295 15.2691 14.9056 14.8694 14.9056C14.4698 14.9056 14.1459 15.2295 14.1459 15.6292C14.1459 16.4271 13.4966 17.0763 12.6987 17.0763H2.89429C2.09638 17.0763 1.44715 16.4271 1.44715 15.6292C1.44715 14.8313 2.09638 14.182 2.89429 14.182ZM1.44715 2.89429C1.44715 2.09638 2.09638 1.44715 2.89429 1.44715H12.6987C13.4966 1.44715 14.1459 2.09638 14.1459 2.89429V11.2877C14.1459 12.0856 13.4966 12.7349 12.6987 12.7349H2.89429C2.36744 12.7349 1.87309 12.8763 1.44715 13.1232V2.89429ZM4.37762 4.88412C4.37762 4.48446 4.70153 4.16054 5.10119 4.16054H10.528C10.9276 4.16054 11.2516 4.48446 11.2516 4.88412C11.2516 5.28378 10.9276 5.60769 10.528 5.60769H5.10119C4.70153 5.60769 4.37762 5.28378 4.37762 4.88412Z" fill="#F4F9F4"/>
</svg>
