<svg width="217" height="163" viewBox="0 0 217 163" fill="none" xmlns="http://www.w3.org/2000/svg">
<g opacity="0.8" clip-path="url(#clip0)">
<path d="M213.345 114.588C209.55 122.669 202.979 128.852 195.462 133.557C192.379 135.471 189.173 137.165 185.866 138.628C183.703 139.594 181.51 140.477 179.288 141.274C168.264 145.247 156.599 147.189 144.915 147.195C143.005 147.197 141.096 147.147 139.186 147.044C138.638 147.014 138.09 146.981 137.543 146.944C134.656 146.746 131.779 146.43 128.912 145.994C128.855 145.985 128.797 145.977 128.74 145.967C122.742 145.052 116.828 143.622 111.061 141.69C109.943 141.316 108.832 140.923 107.728 140.511C107.43 140.403 107.131 140.289 106.835 140.177C105.591 139.7 104.355 139.201 103.129 138.678C102.098 138.239 101.073 137.784 100.053 137.312C99.0503 136.844 98.0539 136.361 97.0643 135.863C95.4448 135.044 93.8428 134.185 92.2582 133.287C91.0356 132.588 89.8291 131.863 88.6387 131.112C85.6865 129.251 82.8298 127.233 80.0801 125.066C79.1093 124.301 78.1518 123.517 77.2078 122.713C76.5532 122.156 75.9046 121.586 75.2459 121.033C73.8561 119.867 72.426 118.759 70.8307 117.929C70.3493 117.679 69.8559 117.454 69.3523 117.256C67.4699 116.537 65.4868 116.139 63.4807 116.077C60.0585 115.937 56.5255 116.594 53.2161 117.567C51.643 118.027 50.088 118.555 48.5329 119.095C47.8944 119.318 47.2566 119.541 46.6194 119.765C45.3021 120.228 43.9848 120.682 42.6554 121.095C42.2122 121.233 41.7692 121.368 41.3239 121.495C39.5467 122.023 37.7354 122.42 35.9037 122.684C31.813 123.221 27.6585 122.847 23.7194 121.588L23.3831 121.48C22.8191 121.297 22.2612 121.098 21.7052 120.879L21.3688 120.746C20.8331 120.532 20.3074 120.303 19.7916 120.058L19.4553 119.9C18.9598 119.661 18.4743 119.411 17.997 119.147C17.9567 119.127 17.9184 119.106 17.8781 119.083C17.6928 118.983 17.5096 118.875 17.3282 118.773C14.4037 117.084 11.7443 114.947 9.44049 112.434C9.374 112.366 9.31155 112.295 9.23907 112.226C8.91873 111.869 8.6045 111.505 8.30039 111.133C8.18758 110.996 8.07477 110.858 7.96403 110.717C7.60347 110.262 7.25501 109.797 6.91865 109.322C6.86829 109.253 6.8199 109.183 6.77161 109.114C5.39607 107.149 4.25515 105.02 3.37355 102.773C3.34532 102.705 3.31916 102.634 3.29496 102.565C3.02705 101.852 2.782 101.127 2.55978 100.389C2.4691 100.081 2.38255 99.7648 2.30594 99.4571C2.27977 99.3656 2.25558 99.2721 2.23345 99.1806C1.13171 94.665 1.01282 89.9685 1.01282 85.2991V83.667C1.04508 76.114 1.15789 68.4321 2.23749 60.983C2.24178 60.9313 2.24917 60.8799 2.25962 60.8291C2.62221 58.3216 3.11371 55.8358 3.73205 53.3821C4.38139 50.8081 5.21006 48.286 6.21159 45.8353C8.69517 39.8062 12.3068 34.3197 16.3171 29.2344C26.4085 16.4464 39.6562 5.69585 55.1618 1.68544C71.8701 -2.64513 90.4394 1.50457 103.917 12.5795C107.891 15.8435 111.474 19.6897 115.879 22.2801C116.028 22.3695 116.179 22.4568 116.333 22.5421C116.915 22.8685 117.51 23.1651 118.117 23.4319C118.922 23.7869 119.751 24.0821 120.597 24.3155C123.274 25.0577 126.071 25.1242 128.74 24.2032C128.958 24.1263 129.175 24.0452 129.391 23.9558C129.848 23.7687 130.285 23.594 130.706 23.4319C133.579 22.3279 135.79 21.7915 139.281 21.9849C147.571 22.4669 155.743 24.2323 163.524 27.2219C163.839 27.3404 164.153 27.4631 164.465 27.5857C184.75 35.6003 202.192 51.5151 211.252 71.9664C211.494 72.5069 211.727 73.0516 211.951 73.6005C217.355 86.6192 219.305 101.894 213.345 114.588Z" fill="#F2F2F2"/>
<path d="M12.8122 106.574V106.657L12.782 106.694L12.8122 106.574Z" fill="#CACACA"/>
<path d="M48.5329 119.095C47.8944 119.318 47.2566 119.541 46.6194 119.765V119.095H48.5329Z" fill="white"/>
<path d="M120.597 12.2178H115.879V24.3914H120.597V12.2178Z" fill="#E4E4E4"/>
<path d="M128.74 23.4319V145.967C122.742 145.052 116.828 143.622 111.061 141.69C109.943 141.316 108.832 140.923 107.728 140.511C107.43 140.403 107.131 140.289 106.835 140.177C105.591 139.7 104.355 139.201 103.129 138.678C102.098 138.239 101.073 137.784 100.053 137.312C99.0503 136.844 98.0539 136.361 97.0643 135.863C95.4448 135.044 93.8428 134.185 92.2582 133.287C91.0356 132.588 89.8291 131.863 88.6387 131.112V23.4319H128.74Z" fill="#E4E4E4"/>
<path d="M144.915 23.4319V147.195C143.005 147.197 141.096 147.147 139.186 147.044C138.638 147.014 138.091 146.981 137.543 146.944C134.656 146.746 131.779 146.43 128.912 145.994C128.855 145.985 128.797 145.977 128.74 145.967V23.4319H144.915Z" fill="#CACACA"/>
<path d="M101.95 35.6051H95.884V41.8658H101.95V35.6051Z" fill="white"/>
<path d="M111.722 35.6051H105.656V41.8658H111.722V35.6051Z" fill="white"/>
<path d="M121.495 35.6051H115.429V41.8658H121.495V35.6051Z" fill="white"/>
<path d="M102.118 49.8656H96.0526V56.1263H102.118V49.8656Z" fill="white"/>
<path d="M111.891 49.8656H105.825V56.1263H111.891V49.8656Z" fill="white"/>
<path d="M121.663 49.8656H115.598V56.1263H121.663V49.8656Z" fill="white"/>
<path d="M102.287 64.1261H96.2211V70.3868H102.287V64.1261Z" fill="white"/>
<path d="M112.059 64.1261H105.993V70.3868H112.059V64.1261Z" fill="white"/>
<path d="M121.832 64.1261H115.766V70.3868H121.832V64.1261Z" fill="white"/>
<path d="M102.455 78.3866H96.3895V84.6473H102.455V78.3866Z" fill="white"/>
<path d="M112.228 78.3866H106.162V84.6473H112.228V78.3866Z" fill="white"/>
<path d="M122 78.3866H115.934V84.6473H122V78.3866Z" fill="white"/>
<path d="M102.624 92.6471H96.558V98.9078H102.624V92.6471Z" fill="white"/>
<path d="M112.396 92.6471H106.331V98.9078H112.396V92.6471Z" fill="white"/>
<path d="M122.169 92.6471H116.103V98.9078H122.169V92.6471Z" fill="white"/>
<path d="M102.792 106.907H96.7264V113.168H102.792V106.907Z" fill="white"/>
<path d="M112.565 106.907H106.499V113.168H112.565V106.907Z" fill="white"/>
<path d="M122.337 106.907H116.271V113.168H122.337V106.907Z" fill="white"/>
<path d="M102.961 121.168H96.895V127.429H102.961V121.168Z" fill="white"/>
<path d="M112.733 121.168H106.667V127.429H112.733V121.168Z" fill="white"/>
<path d="M122.506 121.168H116.44V127.429H122.506V121.168Z" fill="white"/>
<path d="M103.129 135.428V138.678C102.098 138.239 101.073 137.784 100.053 137.312C99.0503 136.844 98.054 136.361 97.0643 135.863V135.428H103.129Z" fill="white"/>
<path d="M112.902 135.428V141.69H111.061C109.943 141.316 108.832 140.923 107.728 140.511C107.43 140.403 107.131 140.289 106.835 140.177V135.428L112.902 135.428Z" fill="white"/>
<path d="M122.674 135.428H116.608V141.689H122.674V135.428Z" fill="white"/>
<path d="M175.58 74.2128H170.863V81.4278H175.58V74.2128Z" fill="#E4E4E4"/>
<path d="M179.288 80.8083V141.274C168.264 145.247 156.599 147.189 144.915 147.195C143.005 147.197 141.096 147.147 139.186 147.044V80.8083H179.288Z" fill="#E4E4E4"/>
<path d="M195.462 80.8083V133.557C192.379 135.471 189.173 137.165 185.866 138.628C183.703 139.594 181.51 140.477 179.288 141.274V80.8083H195.462Z" fill="#CACACA"/>
<path d="M153.171 92.6471H147.105V98.9078H153.171V92.6471Z" fill="white"/>
<path d="M162.944 92.6471H156.878V98.9078H162.944V92.6471Z" fill="white"/>
<path d="M172.716 92.6471H166.65V98.9078H172.716V92.6471Z" fill="white"/>
<path d="M153.339 106.907H147.274V113.168H153.339V106.907Z" fill="white"/>
<path d="M163.112 106.907H157.046V113.168H163.112V106.907Z" fill="white"/>
<path d="M172.884 106.907H166.819V113.168H172.884V106.907Z" fill="white"/>
<path d="M153.508 121.168H147.442V127.429H153.508V121.168Z" fill="white"/>
<path d="M163.28 121.168H157.215V127.429H163.28V121.168Z" fill="white"/>
<path d="M173.053 121.168H166.987V127.429H173.053V121.168Z" fill="white"/>
<path d="M153.677 135.428H147.611V141.689H153.677V135.428Z" fill="white"/>
<path d="M163.449 135.428H157.383V141.689H163.449V135.428Z" fill="white"/>
<path d="M173.221 135.428H167.156V141.689H173.221V135.428Z" fill="white"/>
<path d="M143.933 149.103C143.933 149.103 146.091 157.023 155.128 156.663C164.165 156.303 168.071 148.958 168.071 148.958L143.933 149.103Z" fill="#3F3D56"/>
<path d="M19.4035 118.211L16.8217 123.092L17.2408 132.253L79.1098 151.227L106.051 154.647L100.784 121.484L82.353 118.116L54.7042 118.931L31.2634 114.467L19.4035 118.211Z" fill="#2F2E41"/>
<path d="M28.016 150.327H26.4189C24.8749 150.332 23.3616 149.882 22.0579 149.028C20.7542 148.174 19.7146 146.953 19.062 145.509C16.5998 139.961 17.3291 132.289 17.3399 132.18C17.8979 125.549 21.4188 121.222 26.102 121.419C31.2721 121.634 35.6807 140.091 35.8659 140.877C36.1731 142.202 36.0923 143.591 35.6336 144.868C35.0631 146.477 34.0251 147.865 32.6617 148.842C31.2982 149.819 29.6758 150.337 28.016 150.327Z" fill="#3F3D56"/>
<path d="M93.1444 163C92.8712 162.993 92.5987 162.966 92.3293 162.919C90.2627 162.583 88.3094 161.722 86.6447 160.414C84.9801 159.106 83.6564 157.392 82.7924 155.425C82.1448 153.972 81.5219 152.484 80.9408 151.002C78.6073 145.051 80.5635 134.649 83.7419 130.623C86.5472 127.07 89.3707 127.098 93.645 127.139C94.0838 127.144 94.5384 127.148 95.0103 127.149C99.7561 127.157 104.773 145.176 106.422 151.097C106.553 151.568 106.662 151.958 106.746 152.25C107.004 153.15 106.973 154.226 106.654 155.449C105.648 159.306 102.333 162.166 98.4046 162.567C95.583 162.854 93.8132 163 93.1444 163Z" fill="#3F3D56"/>
<path d="M17.2407 132.253C17.2407 132.253 15.4268 123.9 18.1477 118.211L20.8899 111.371L31.2524 121.308L33.6186 136.857L74.1685 143.198C74.1685 143.198 71.657 117.707 87.4237 116.699C103.191 115.691 110.672 143.198 110.672 143.198L118.539 149.103L173.374 144.926C173.374 144.926 174.342 147.662 172.951 149.103C171.56 150.543 105.004 155.007 105.004 155.007C105.004 155.007 101.656 120.876 88.4005 124.044C75.1452 127.212 79.1097 151.227 79.1097 151.227L31.7517 142.622C31.7517 142.622 30.2169 119.435 22.4033 119.435C14.5897 119.435 17.2407 132.253 17.2407 132.253Z" fill="#3F3D56"/>
<path d="M26.5852 103.214L35.519 88.7602L73.6105 86.4561L115.888 87.0321L135.561 105.898L74.7266 109.498L25.752 106.762L26.5852 103.214Z" fill="#3F3D56"/>
<path d="M26.5854 103.214C26.5854 103.214 18.9849 103.378 18.1477 118.211C18.1477 118.211 26.2404 103.09 33.2168 136.789L74.8662 143.774C74.8662 143.774 73.3314 115.691 89.0981 117.851C104.865 120.011 108.632 145.79 108.632 145.79C108.632 145.79 111.702 152.127 128.585 151.119C145.468 150.111 170.722 148.526 173.374 144.926C173.374 144.926 179.513 123.468 160.397 109.642L135.561 105.898L79.3311 107.05L26.5854 103.214Z" fill="#A7D7C5"/>
<path d="M45.6348 113.315H40.8908C40.7622 113.315 40.6348 113.29 40.5159 113.239C40.397 113.189 40.2889 113.115 40.1978 113.021C40.1067 112.927 40.0344 112.816 39.9851 112.693C39.9358 112.571 39.9104 112.439 39.9104 112.307C39.9104 112.174 39.9358 112.043 39.9851 111.92C40.0344 111.797 40.1067 111.686 40.1978 111.593C40.2889 111.499 40.397 111.425 40.5159 111.374C40.6348 111.324 40.7622 111.298 40.8908 111.299H45.6348C45.8932 111.3 46.1407 111.406 46.323 111.595C46.5054 111.784 46.6078 112.04 46.6078 112.307C46.6078 112.573 46.5054 112.829 46.323 113.018C46.1407 113.207 45.8932 113.314 45.6348 113.315Z" fill="#CACACA"/>
<path d="M117.841 144.638C119.536 144.638 120.911 143.22 120.911 141.47C120.911 139.72 119.536 138.301 117.841 138.301C116.146 138.301 114.771 139.72 114.771 141.47C114.771 143.22 116.146 144.638 117.841 144.638Z" fill="white"/>
<path d="M116.32 125.923C114.219 125.923 111.71 124.997 109.464 123.212C105.501 120.061 103.836 115.408 105.752 112.841C107.669 110.273 112.452 110.747 116.415 113.898C118.33 115.421 119.772 117.335 120.475 119.287C121.182 121.251 121.058 123.02 120.126 124.269C119.296 125.382 117.927 125.923 116.32 125.923Z" fill="white"/>
<path d="M170.869 121.9C169.322 121.9 166.545 120.285 163.795 117.662C162.147 116.09 160.782 114.405 159.951 112.918C159.106 111.407 158.914 110.27 159.409 109.717C159.904 109.164 161.017 109.272 162.543 110.022C164.046 110.759 165.781 112.031 167.429 113.603C170.907 116.921 172.834 120.411 171.815 121.548C171.69 121.672 171.541 121.768 171.378 121.828C171.215 121.889 171.042 121.914 170.869 121.9Z" fill="white"/>
<path d="M41.1965 103.211C41.1634 103.211 41.13 103.21 41.0965 103.206L31.0073 102.238C30.8232 102.221 30.6465 102.155 30.494 102.047C30.3415 101.939 30.2183 101.792 30.136 101.622C30.0537 101.451 30.015 101.261 30.0237 101.07C30.0323 100.88 30.088 100.694 30.1855 100.532L35.8748 91.0648C35.9679 90.9099 36.0961 90.7807 36.2485 90.6886C36.4009 90.5964 36.5728 90.5441 36.7493 90.5361L44.2743 90.1935C44.4473 90.1856 44.6196 90.2206 44.7769 90.2955C44.9341 90.3704 45.0717 90.483 45.1782 90.624C45.2846 90.765 45.3568 90.9302 45.3888 91.1059C45.4208 91.2816 45.4115 91.4626 45.3619 91.6338L42.2367 102.412C42.1692 102.643 42.0317 102.845 41.8444 102.989C41.6571 103.133 41.43 103.211 41.1965 103.211Z" fill="white"/>
<path d="M67.7832 105.429C67.6837 105.429 67.5835 105.424 67.4825 105.414L50.0403 103.642C49.5995 103.597 49.1734 103.454 48.7918 103.221C48.4102 102.989 48.0823 102.674 47.831 102.297C47.5797 101.921 47.411 101.492 47.3366 101.042C47.2623 100.591 47.2841 100.129 47.4006 99.6876L49.9099 90.1844C50.0787 89.5361 50.4452 88.961 50.9552 88.5441C51.4651 88.1273 52.0915 87.8908 52.7416 87.8697L66.8183 87.3624C67.582 87.3389 68.3267 87.6109 68.9061 88.1252C69.4854 88.6394 69.8576 89.3586 69.9494 90.1415L71.111 100.484C71.1498 100.829 71.1329 101.178 71.0609 101.518L70.7557 102.958C70.6072 103.658 70.2315 104.284 69.691 104.734C69.1504 105.183 68.4774 105.429 67.7832 105.429Z" fill="white"/>
<path d="M81.3961 105.93C80.8856 105.928 80.3905 105.749 79.9909 105.421C79.5913 105.093 79.3105 104.635 79.1938 104.122L76.1168 90.3947C76.0401 90.0527 76.0392 89.6973 76.1142 89.3548C76.1891 89.0124 76.3379 88.6919 76.5496 88.4171C76.7613 88.1424 77.0303 87.9204 77.3366 87.7679C77.6429 87.6154 77.9786 87.5361 78.3187 87.5361H114.807C115.11 87.5368 115.409 87.5999 115.688 87.7215C115.966 87.8432 116.219 88.0211 116.43 88.2447L128.348 100.928C128.654 101.254 128.862 101.665 128.945 102.11C129.028 102.556 128.984 103.017 128.817 103.437C128.65 103.857 128.368 104.218 128.005 104.475C127.643 104.732 127.216 104.874 126.776 104.884L81.4462 105.929C81.4295 105.929 81.4127 105.93 81.3961 105.93Z" fill="white"/>
<path d="M35.2075 89.2641L35.519 88.7602C35.519 88.7602 37.3329 83.5757 62.3085 82.7116C87.2842 81.8475 110.585 82.2795 115.888 87.032L72.7732 86.888L36.3562 89.4803L35.2075 89.2641Z" fill="#A7D7C5"/>
<path d="M23.38 126.204C20.7599 126.204 18.636 130.718 18.636 136.285C18.636 141.853 20.7599 146.366 23.38 146.366C26 146.366 28.124 141.853 28.124 136.285C28.124 130.718 26 126.204 23.38 126.204ZM23.5893 128.364C24.1672 128.364 24.6357 129.525 24.6357 130.957C24.6357 132.388 24.1672 133.549 23.5893 133.549C23.0113 133.549 22.5428 132.388 22.5428 130.957C22.5428 129.525 23.0113 128.364 23.5893 128.364ZM24.2171 136.285C24.2171 136.762 23.9048 137.149 23.5195 137.149C23.1342 137.149 22.8219 136.762 22.8219 136.285C22.8219 135.808 23.1342 135.421 23.5195 135.421C23.9048 135.421 24.2171 135.808 24.2171 136.285V136.285ZM20.572 136.84C19.6748 136.911 18.9241 136.656 18.8952 136.271C18.8663 135.885 19.5702 135.514 20.4674 135.443C21.3645 135.371 22.1152 135.626 22.144 136.012C22.1729 136.397 21.4691 136.768 20.5719 136.84L20.572 136.84ZM23.5893 144.206C23.0113 144.206 22.5428 143.045 22.5428 141.614C22.5428 140.182 23.0113 139.021 23.5893 139.021C24.1672 139.021 24.6357 140.182 24.6357 141.614C24.6357 143.045 24.1672 144.206 23.5893 144.206H23.5893ZM26.2926 136.84C25.3954 136.911 24.6448 136.656 24.6159 136.271C24.587 135.885 25.2909 135.514 26.1881 135.443C27.0852 135.371 27.8358 135.626 27.8647 136.012C27.8936 136.397 27.1898 136.768 26.2926 136.84L26.2926 136.84Z" fill="#E4E4E4"/>
<path d="M89.6561 132.973C85.4949 132.973 82.1216 138.744 82.1216 145.862C82.1216 152.981 85.4949 158.752 89.6561 158.752C93.8173 158.752 97.1907 152.981 97.1907 145.862C97.1907 138.744 93.8173 132.973 89.6561 132.973ZM85.1549 146.829C83.9396 146.926 82.9228 146.581 82.8837 146.059C82.8446 145.536 83.798 145.034 85.0132 144.937C86.2284 144.84 87.2453 145.185 87.2844 145.708C87.3235 146.23 86.3701 146.733 85.1549 146.829ZM89.6606 156.663C88.8777 156.663 88.2431 155.091 88.2431 153.152C88.2431 151.213 88.8777 149.641 89.6606 149.641C90.4434 149.641 91.0781 151.213 91.0781 153.152C91.0781 155.091 90.4434 156.663 89.6606 156.663ZM88.5399 145.934C88.5399 145.171 89.0397 144.552 89.6561 144.552C90.2726 144.552 90.7724 145.171 90.7724 145.934C90.7724 146.698 90.2726 147.317 89.6561 147.317C89.0397 147.317 88.5399 146.698 88.5399 145.934ZM89.6606 142.228C88.8777 142.228 88.2431 140.656 88.2431 138.716C88.2431 136.777 88.8777 135.205 89.6606 135.205C90.4434 135.205 91.0781 136.777 91.0781 138.716C91.0781 140.656 90.4434 142.228 89.6606 142.228ZM94.4386 146.541C93.2234 146.638 92.2065 146.293 92.1674 145.771C92.1283 145.248 93.0818 144.746 94.297 144.649C95.5122 144.552 96.529 144.897 96.5681 145.42C96.6072 145.942 95.6538 146.445 94.4386 146.541Z" fill="#E4E4E4"/>
<path d="M63.2853 107.194L64.9596 111.227C64.9596 111.227 67.7502 112.379 69.5641 108.49L65.8885 104.697L63.2853 107.194Z" fill="#CACACA"/>
<path d="M60.983 108.13C57.9825 108.13 55.5414 106.451 55.5414 104.386C55.5414 102.321 57.9825 100.641 60.983 100.641C63.9835 100.641 66.4246 102.321 66.4246 104.386C66.4246 106.451 63.9835 108.13 60.983 108.13Z" fill="#CACACA"/>
<path d="M165.909 121.308L134.713 122.249C134.713 122.249 127.886 124.225 127.189 129.873C127.189 129.873 128.165 134.485 130.673 134.485C133.181 134.485 171.636 132.414 171.636 132.414C171.636 132.414 174.143 128.461 172.053 125.637C169.964 122.814 165.909 121.308 165.909 121.308Z" fill="#3F3D56"/>
<path d="M168.61 123.107L132.026 124.355L132.04 124.787L168.624 123.539L168.61 123.107Z" fill="#E4E4E4"/>
<path d="M169.941 124.476L130.152 126.337L130.171 126.768L169.96 124.907L169.941 124.476Z" fill="#E4E4E4"/>
<path d="M171.333 126.335L128.664 128.7L128.687 129.132L171.356 126.767L171.333 126.335Z" fill="#E4E4E4"/>
<path d="M23.1583 116.764C22.9879 116.538 22.8675 116.276 22.8057 115.997C22.7439 115.718 22.7422 115.428 22.8006 115.148C22.8591 114.868 22.9763 114.605 23.144 114.377C23.3117 114.149 23.5258 113.961 23.7712 113.828L23.3749 109.37L25.9406 108.461L26.4147 114.764C26.6048 115.205 26.6316 115.702 26.4902 116.162C26.3487 116.621 26.0488 117.011 25.6473 117.258C25.2457 117.504 24.7705 117.59 24.3117 117.499C23.8529 117.408 23.4423 117.147 23.1579 116.764L23.1583 116.764Z" fill="#FFB8B8"/>
<path d="M25.9127 91.1795C25.9127 91.1795 27.6734 87.3655 29.238 88.7062C30.8026 90.0469 27.0929 101.325 27.0929 101.325L26.5289 112.274L23.5554 111.967L22.7146 101.301L25.9127 91.1795Z" fill="#E6E6E6"/>
<path d="M2.29517 147.606L4.5024 149.45L12.4445 141.539L9.18692 138.818L2.29517 147.606Z" fill="#FFB8B8"/>
<path d="M2.31525 146.391L6.6622 150.023C7.39683 150.637 7.86512 151.527 7.96405 152.497C8.06299 153.467 7.78447 154.438 7.18976 155.196L7.11692 155.289L0 149.343L2.31525 146.391Z" fill="#2F2E41"/>
<path d="M32.9714 152.725H35.8112L37.1614 141.418H32.9708L32.9714 152.725Z" fill="#FFB8B8"/>
<path d="M32.2467 151.768H37.8395C38.7847 151.768 39.6912 152.155 40.3596 152.845C41.028 153.535 41.4036 154.471 41.4037 155.446V155.566H32.2469L32.2467 151.768Z" fill="#2F2E41"/>
<path d="M37.9543 99.7219C37.9543 99.7219 43.282 106.416 42.1238 113.111C40.9657 119.806 40.0391 124.826 40.0391 124.826L38.1869 139.888C38.1869 139.888 38.8818 143.991 37.9553 145.048C37.9553 145.048 39.3451 147.539 36.7971 148.496C34.2491 149.452 32.8733 148.166 32.8733 148.166C32.8733 148.166 31.0052 145.388 32.1633 144.672L32.6514 115.11L14.0956 140.127C14.0956 140.127 13.7547 143.17 11.377 143.203L8.53629 145.387L5.29333 143.474L6.9148 141.323C6.9148 141.323 5.98825 138.932 8.073 138.453L20.1183 122.196L23.1296 113.828C23.1296 113.828 24.7511 107.373 29.1522 104.743V101.944L37.9543 99.7219Z" fill="#2F2E41"/>
<path d="M28.8047 88.1261C29.506 87.2706 30.4878 86.7113 31.5629 86.5546C32.638 86.3979 33.7314 86.6549 34.6348 87.2766L34.8273 87.4091C36.8834 89.8124 38.2653 92.7491 38.8241 95.903L39.6915 100.798L28.8045 103.232L26.2523 94.1467C25.9283 92.9935 26.0063 91.7597 26.4726 90.6597C26.9389 89.5597 27.764 88.6633 28.8045 88.1263L28.8047 88.1261Z" fill="#E6E6E6"/>
<path d="M46.6913 117.805C46.3895 117.703 46.113 117.534 45.8812 117.31C45.6495 117.086 45.4682 116.812 45.35 116.508C45.2319 116.204 45.1798 115.876 45.1975 115.549C45.2152 115.222 45.3021 114.903 45.4523 114.614L42.3116 110.647L44.1819 108.089L48.5408 113.756C48.994 114.048 49.3276 114.502 49.4782 115.031C49.6289 115.561 49.5862 116.129 49.3582 116.628C49.1303 117.127 48.7329 117.522 48.2414 117.739C47.7499 117.956 47.1983 117.979 46.6913 117.805H46.6913Z" fill="#FFB8B8"/>
<path d="M33.4373 91.7125C33.4373 91.7125 32.7424 86.9307 35.0588 87.1698C37.3752 87.4089 40.8498 100.559 40.8498 100.559L47.1041 111.318L44.0927 112.991L36.6803 103.428L33.4373 91.7125Z" fill="#E6E6E6"/>
<path d="M37.6794 84.7218H26.6489C26.422 84.7216 26.2045 84.6284 26.044 84.4628C25.8836 84.2972 25.7933 84.0727 25.7931 83.8385V78.9311C25.7931 77.1871 26.4643 75.5145 27.6591 74.2813C28.8539 73.048 30.4744 72.3552 32.1641 72.3552C33.8538 72.3552 35.4743 73.048 36.6691 74.2813C37.8639 75.5145 38.5352 77.1871 38.5352 78.9311V83.8385C38.5349 84.0727 38.4447 84.2972 38.2842 84.4628C38.1238 84.6284 37.9063 84.7216 37.6794 84.7218Z" fill="#2F2E41"/>
<path d="M33.4733 84.6075C36.053 84.6075 38.1443 82.449 38.1443 79.7863C38.1443 77.1236 36.053 74.9651 33.4733 74.9651C30.8935 74.9651 28.8022 77.1236 28.8022 79.7863C28.8022 82.449 30.8935 84.6075 33.4733 84.6075Z" fill="#FFB8B8"/>
<path d="M40.0422 79.4218H34.1638L34.1035 78.4223L33.8021 79.4218H32.897L32.7776 77.4408L32.1802 79.4218H30.4288V79.3236C30.4288 76.4554 32.3993 74.1218 34.822 74.1218H35.6508C38.0728 74.1218 40.044 76.4554 40.044 79.3236L40.0422 79.4218Z" fill="#2F2E41"/>
<path d="M34.4073 85.6379C34.3354 85.6379 34.2637 85.6322 34.1927 85.6209L27.1958 84.5084V76.9864C27.1958 76.218 27.4915 75.4811 28.018 74.9377C28.5444 74.3944 29.2584 74.0891 30.0029 74.0891H34.8981L34.7079 74.2895C32.0549 77.0769 34.0537 81.5982 35.4812 84.0454C35.586 84.2213 35.6333 84.4272 35.6161 84.6329C35.599 84.8386 35.5184 85.0332 35.3861 85.188C35.2646 85.3321 35.1141 85.4471 34.9451 85.5249C34.7761 85.6027 34.5927 85.6415 34.4076 85.6385L34.4073 85.6379Z" fill="#2F2E41"/>
</g>
<defs>
<clipPath id="clip0">
<rect width="217" height="163" fill="white"/>
</clipPath>
</defs>
</svg>
