<?xml version="1.0" encoding="iso-8859-1"?>
<!-- Generator: Adobe Illustrator 19.0.0, SVG Export Plug-In . SVG Version: 6.00 Build 0)  -->
<svg version="1.1" id="Capa_1" xmlns="http://www.w3.org/2000/svg" xmlns:xlink="http://www.w3.org/1999/xlink" x="0px" y="0px"
	 viewBox="0 0 510.408 510.408" style="enable-background:new 0 0 510.408 510.408;" xml:space="preserve">
<g>
	<g>
		<path d="M503.617,278.174c-7.159-10.003-19.087-16.726-31.127-17.544c-9.824-0.676-18.733,2.656-25.07,9.363
			c-1.39,1.471-2.89,3.087-4.477,4.818c-7.009-6.42-16.193-10.552-25.453-11.181c-9.728-0.668-18.553,2.596-24.877,9.17
			c-7.337-5.828-16.462-9.21-25.409-9.254c-0.057,0-0.113,0-0.17,0c-8.829,0-16.855,3.352-22.614,9.447
			c-9.232,9.773-24.29,26.909-44.743,50.914c-42.423-16.947-122.64-46.623-164.177-46.623H7.5c-4.143,0-7.5,3.357-7.5,7.5
			s3.357,7.5,7.5,7.5h128c53.808,0,184.61,56.26,185.925,56.828c0.242,0.104,0.489,0.196,0.741,0.274
			c12.896,4.024,20.114,17.79,16.09,30.687c-1.95,6.247-6.215,11.361-12.011,14.4c-5.795,3.038-12.425,3.639-18.675,1.689
			c-0.081-0.025-0.162-0.049-0.243-0.071l-81.836-22.538c-3.94-1.085-8.136,1.3-9.222,5.239c-1.085,3.94,1.299,8.137,5.239,9.222
			l81.72,22.507c9.929,3.062,20.781,2.062,29.981-2.764c9.345-4.899,16.222-13.145,19.364-23.216
			c1.035-3.317,1.603-6.669,1.752-9.988l21.959-2.311c1.942-0.205,3.729-1.159,4.979-2.66c0.541-0.65,54.362-65.263,77.061-89.289
			c4.102-4.343,9.412-4.954,13.148-4.698c7.568,0.514,15.398,4.953,19.947,11.309c10.477,14.638-2.543,30.618-6.783,35.168
			c-20.835,22.355-59.041,68.411-65.908,76.713L270.02,473.14c-4.314,2.156-9.339,2.319-13.783,0.448L114.41,413.873
			c-0.921-0.388-1.91-0.588-2.91-0.588H7.5c-4.143,0-7.5,3.357-7.5,7.5s3.357,7.5,7.5,7.5h102.485l140.431,59.128
			c8.415,3.544,18.145,3.226,26.312-0.856l150.127-75.063c0.936-0.468,1.764-1.127,2.43-1.935
			c0.439-0.532,44.172-53.488,66.325-77.259C511.919,314.8,514.988,294.06,503.617,278.174z M314.32,329.853
			c18.434-21.579,32.56-37.621,41.004-46.558c3.699-3.915,8.391-4.748,11.71-4.748c0.032,0,0.065,0,0.097,0
			c5.21,0.025,10.731,2.009,15.295,5.356c-13.866,15.464-32.261,36.997-47.397,54.914c-2.478-1.472-5.148-2.7-8-3.623
			C325.557,334.56,321.054,332.634,314.32,329.853z M371.688,357.644l-19.565,2.059c-1.38-3.917-3.374-7.597-5.894-10.902
			c16.333-19.334,42.888-50.469,57.094-65.507c4.103-4.344,9.411-4.948,13.148-4.699c5.879,0.4,11.908,3.174,16.442,7.369
			C410.412,311.367,379.776,347.956,371.688,357.644z"/>
		<path d="M122.771,177.868l128,104c2.723,2.212,6.736,2.212,9.459,0l128-104c2.478-2.014,3.412-5.479,2.287-8.466
			c-1.088-2.89-3.928-4.856-7.017-4.856H343V104.38c0-4.143-3.357-7.5-7.5-7.5s-7.5,3.357-7.5,7.5v67.667c0,4.143,3.357,7.5,7.5,7.5
			h26.876L255.5,266.383l-106.876-86.837H175.5c4.143,0,7.5-3.357,7.5-7.5v-136.5h145V68.38c0,4.143,3.357,7.5,7.5,7.5
			s7.5-3.357,7.5-7.5V28.047c0-4.143-3.357-7.5-7.5-7.5h-160c-4.143,0-7.5,3.357-7.5,7.5v136.5h-40.5
			c-3.089,0-5.928,1.966-7.017,4.856C119.358,172.389,120.292,175.854,122.771,177.868z"/>
		<path d="M287.5,123.547c4.143,0,7.5-3.357,7.5-7.5v-8c0-17.369-14.131-31.5-31.5-31.5H263v-16.5c0-4.143-3.357-7.5-7.5-7.5
			s-7.5,3.357-7.5,7.5v16.674c-17.938,1.764-32,16.932-32,35.326c0,19.575,15.925,35.5,35.5,35.5h8c11.304,0,20.5,9.196,20.5,20.5
			s-9.196,20.5-20.5,20.5h-12c-9.098,0-16.5-7.402-16.5-16.5c0-4.143-3.357-7.5-7.5-7.5s-7.5,3.357-7.5,7.5
			c0,17.369,14.131,31.5,31.5,31.5h0.5v16.5c0,4.143,3.357,7.5,7.5,7.5s7.5-3.357,7.5-7.5v-16.674c17.938-1.764,32-16.932,32-35.326
			c0-19.575-15.925-35.5-35.5-35.5h-8c-11.304,0-20.5-9.196-20.5-20.5s9.196-20.5,20.5-20.5h12c9.098,0,16.5,7.402,16.5,16.5v8
			C280,120.189,283.357,123.547,287.5,123.547z"/>
	</g>
</g>
<g>
</g>
<g>
</g>
<g>
</g>
<g>
</g>
<g>
</g>
<g>
</g>
<g>
</g>
<g>
</g>
<g>
</g>
<g>
</g>
<g>
</g>
<g>
</g>
<g>
</g>
<g>
</g>
<g>
</g>
</svg>
