<svg width="204" height="50" viewBox="0 0 204 50" fill="none" xmlns="http://www.w3.org/2000/svg">
<path d="M197.403 43.5065H203.084L200.162 50H194.48L197.403 43.5065Z" fill="#212D28"/>
<path d="M47.4399 19.7434C47.4399 26.3066 44.6396 30.0477 39.0389 30.9665L47.8993 50H40.45L31.7209 31.1963H16.9864V50H10.259V2.94142H36.0198C43.6332 2.94142 47.4399 6.75905 47.4399 14.3943V19.7434ZM16.9864 24.4689H35.6588C37.4528 24.4689 38.7436 24.0751 39.5312 23.2875C40.3188 22.4999 40.7126 21.2092 40.7126 19.4152V14.7225C40.7126 12.9285 40.3188 11.6377 39.5312 10.8501C38.7436 10.0626 37.4528 9.66876 35.6588 9.66876H16.9864V24.4689ZM64.8325 15.0506V50H58.3677V15.0506H64.8325ZM58.0396 1.59595H65.1607V8.32329H58.0396V1.59595ZM75.9573 21.5154C75.9573 20.6185 76.1213 19.7762 76.4495 18.9886C76.7996 18.201 77.259 17.5228 77.8278 16.954C78.4185 16.3633 79.1076 15.9039 79.8952 15.5757C80.6828 15.2257 81.5142 15.0506 82.3893 15.0506H100.405V1.59595H106.87V50H100.405V44.0931C100.34 44.9025 100.121 45.6682 99.7491 46.3902C99.3772 47.1122 98.8959 47.7466 98.3052 48.2936C97.7364 48.8186 97.08 49.2343 96.3362 49.5406C95.5924 49.8469 94.8048 50 93.9734 50H82.3893C81.5142 50 80.6828 49.8359 79.8952 49.5078C79.1076 49.1577 78.4185 48.6983 77.8278 48.1295C77.259 47.5388 76.7996 46.8496 76.4495 46.062C76.1213 45.2745 75.9573 44.4322 75.9573 43.5352V21.5154ZM82.3893 43.5352H100.405V21.5154H82.3893V43.5352ZM147.201 35.8234H124.066V43.5352H147.201V50H124.066C123.191 50 122.36 49.8359 121.572 49.5078C120.784 49.1577 120.095 48.6983 119.505 48.1295C118.936 47.5388 118.476 46.8496 118.126 46.062C117.798 45.2745 117.634 44.4322 117.634 43.5352V21.5154C117.634 20.6185 117.798 19.7762 118.126 18.9886C118.476 18.201 118.936 17.5228 119.505 16.954C120.095 16.3633 120.784 15.9039 121.572 15.5757C122.36 15.2257 123.191 15.0506 124.066 15.0506H140.737C141.634 15.0506 142.476 15.2257 143.264 15.5757C144.051 15.9039 144.729 16.3633 145.298 16.954C145.889 17.5228 146.348 18.201 146.676 18.9886C147.026 19.7762 147.201 20.6185 147.201 21.5154V35.8234ZM124.066 21.5154V29.3585H140.737V21.5154H124.066Z" fill="#212D28"/>
<path d="M153.975 2.94142L166.544 20.5638L179.178 2.94142H187.316L170.646 26.2738L187.677 50H179.539L166.544 31.9182L153.647 50H145.508L162.54 26.2738L145.869 2.94142H153.975Z" fill="#212D28"/>
<rect x="139.773" y="43.5065" width="11.039" height="6.49351" fill="#212D28"/>
<path d="M182.955 43.5065H195.292L192.37 50H182.955V43.5065Z" fill="#212D28"/>
<path d="M0 2.92212H13.7987V9.41563H2.75974L0 2.92212Z" fill="#212D28"/>
<rect x="63.474" y="43.5065" width="20.4545" height="6.49351" fill="#212D28"/>
<rect x="43.3441" y="43.5065" width="20.4545" height="6.49351" fill="#212D28"/>
<rect x="105.844" y="43.5065" width="12.013" height="6.49351" fill="#212D28"/>
</svg>
