<svg width="19" height="19" viewBox="0 0 19 19" fill="none" xmlns="http://www.w3.org/2000/svg">
<g clip-path="url(#clip0)">
<path d="M11.0758 8.4806C11.9461 9.3509 11.9461 10.7619 11.0758 11.6322C10.2055 12.5025 8.79451 12.5025 7.92421 11.6322C7.05391 10.7619 7.05391 9.3509 7.92421 8.4806C8.79451 7.61031 10.2055 7.61031 11.0758 8.4806Z" fill="#F4F9F4"/>
<path d="M16.1854 3.92776H14.6456L13.5308 1.69922H5.46817L4.35443 3.92885L2.81687 3.93159C1.59108 3.93378 0.593226 4.9327 0.592167 6.15903L0.586182 15.0699C0.586182 16.2989 1.58565 17.2989 2.81472 17.2989H16.1854C17.4144 17.2989 18.4139 16.2995 18.4139 15.0704V6.15626C18.4139 4.92722 17.4144 3.92776 16.1854 3.92776ZM9.49975 14.5133C7.04215 14.5133 5.04267 12.5138 5.04267 10.0562C5.04267 7.59859 7.04215 5.59911 9.49975 5.59911C11.9573 5.59911 13.9568 7.59859 13.9568 10.0562C13.9568 12.5138 11.9573 14.5133 9.49975 14.5133Z" fill="#F4F9F4"/>
</g>
<defs>
<clipPath id="clip0">
<rect width="17.8277" height="17.8277" fill="white" transform="translate(0.586182 0.585266)"/>
</clipPath>
</defs>
</svg>
