<svg width="27" height="24" viewBox="0 0 27 24" fill="none" xmlns="http://www.w3.org/2000/svg">
<path d="M23.88 1.515C23.58 0.63 22.74 0 21.75 0H5.25C4.26 0 3.435 0.63 3.12 1.515L0 10.5V22.5C0 23.325 0.675 24 1.5 24H3C3.825 24 4.5 23.325 4.5 22.5V21H22.5V22.5C22.5 23.325 23.175 24 24 24H25.5C26.325 24 27 23.325 27 22.5V10.5L23.88 1.515ZM5.25 16.5C4.005 16.5 3 15.495 3 14.25C3 13.005 4.005 12 5.25 12C6.495 12 7.5 13.005 7.5 14.25C7.5 15.495 6.495 16.5 5.25 16.5ZM21.75 16.5C20.505 16.5 19.5 15.495 19.5 14.25C19.5 13.005 20.505 12 21.75 12C22.995 12 24 13.005 24 14.25C24 15.495 22.995 16.5 21.75 16.5ZM3 9L5.25 2.25H21.75L24 9H3Z" fill="#A7D7C5"/>
</svg>
