<svg width="26" height="26" viewBox="0 0 26 26" fill="none" xmlns="http://www.w3.org/2000/svg">
<path d="M13 8.27273C10.3882 8.27273 8.27273 10.3882 8.27273 13C8.27273 15.6118 10.3882 17.7273 13 17.7273C15.6118 17.7273 17.7273 15.6118 17.7273 13C17.7273 10.3882 15.6118 8.27273 13 8.27273ZM23.5655 11.8182C23.0218 6.89 19.11 2.97818 14.1818 2.43455V0H11.8182V2.43455C6.89 2.97818 2.97818 6.89 2.43455 11.8182H0V14.1818H2.43455C2.97818 19.11 6.89 23.0218 11.8182 23.5655V26H14.1818V23.5655C19.11 23.0218 23.0218 19.11 23.5655 14.1818H26V11.8182H23.5655ZM13 21.2727C8.42636 21.2727 4.72727 17.5736 4.72727 13C4.72727 8.42636 8.42636 4.72727 13 4.72727C17.5736 4.72727 21.2727 8.42636 21.2727 13C21.2727 17.5736 17.5736 21.2727 13 21.2727Z" fill="#A7D7C5"/>
</svg>
