<svg width="35" height="35" viewBox="0 0 35 35" fill="none" xmlns="http://www.w3.org/2000/svg">
<g clip-path="url(#clip0)">
<path d="M20.4275 17.6431C20.4275 16.1097 19.1728 14.855 17.6394 14.855C16.1059 14.855 14.8513 16.1097 14.8513 17.6431C14.8513 19.1766 16.1059 20.4313 17.6394 20.4313C19.1728 20.4313 20.4275 19.1766 20.4275 17.6431ZM17.6394 5.09668C10.711 5.09668 5.09292 10.7147 5.09292 17.6431H0.910767L6.48697 23.2194L12.0632 17.6431H7.88103C7.88103 12.2482 12.2444 7.88478 17.6394 7.88478C23.0344 7.88478 27.3978 12.2482 27.3978 17.6431C27.3978 23.0381 23.0344 27.4015 17.6394 27.4015C15.5344 27.4015 13.5827 26.7184 11.9795 25.5892L9.99999 27.5967C12.1189 29.2138 14.7676 30.1896 17.6394 30.1896C24.5678 30.1896 30.1859 24.5716 30.1859 17.6431C30.1859 10.7147 24.5678 5.09668 17.6394 5.09668Z" fill="#262E2B"/>
</g>
<defs>
<clipPath id="clip0">
<rect width="33.4572" height="33.4572" fill="white" transform="translate(0.910767 0.914551)"/>
</clipPath>
</defs>
</svg>
