<?xml version="1.0" encoding="utf-8"?>
<!-- Generator: Adobe Illustrator 23.0.3, SVG Export Plug-In . SVG Version: 6.00 Build 0)  -->
<svg version="1.1" id="Icons" xmlns="http://www.w3.org/2000/svg" xmlns:xlink="http://www.w3.org/1999/xlink" x="0px" y="0px"
	 viewBox="0 0 32 32" style="enable-background:new 0 0 32 32;" xml:space="preserve">
<path d="M28,15h1c0.6,0,1-0.4,1-1s-0.4-1-1-1h-2.8L25,10c-0.7-1.7-2.3-2.8-4.2-3l-0.6-2.5c-0.2-0.9-1-1.5-1.9-1.5h-4.4
	c-0.9,0-1.7,0.6-1.9,1.5L11.2,7C9.4,7.2,7.8,8.3,7,10l-1.3,3H3c-0.6,0-1,0.4-1,1s0.4,1,1,1h1c-1.2,0.9-2,2.4-2,4v4
	c0,0.9,0.4,1.7,1,2.2V27c0,1.7,1.3,3,3,3h2c1.7,0,3-1.3,3-3v-1h10v1c0,1.7,1.3,3,3,3h2c1.7,0,3-1.3,3-3v-1.8c0.6-0.5,1-1.3,1-2.2v-4
	C30,17.4,29.2,15.9,28,15z M13.8,5h4.4l0.5,2h-5.4L13.8,5z M9,21H6c-0.6,0-1-0.4-1-1s0.4-1,1-1h3c0.6,0,1,0.4,1,1S9.6,21,9,21z
	 M10.4,24l1.2-2.3c0.5-1,1.5-1.7,2.7-1.7h3.5c1.1,0,2.2,0.6,2.7,1.7l1.2,2.3H10.4z M7.5,14l1.4-3.2C9.4,9.7,10.4,9,11.6,9H12h8h0.4
	c1.2,0,2.3,0.7,2.8,1.8l1.4,3.2H7.5z M26,21h-3c-0.6,0-1-0.4-1-1s0.4-1,1-1h3c0.6,0,1,0.4,1,1S26.6,21,26,21z"/>
</svg>
